<?xml version="1.0" encoding="UTF-8" standalone="no"?>
<!-- Created with Inkscape (http://www.inkscape.org/) -->

<svg
   xmlns:dc="http://purl.org/dc/elements/1.1/"
   xmlns:cc="http://creativecommons.org/ns#"
   xmlns:rdf="http://www.w3.org/1999/02/22-rdf-syntax-ns#"
   xmlns:svg="http://www.w3.org/2000/svg"
   xmlns="http://www.w3.org/2000/svg"
   xmlns:sodipodi="http://sodipodi.sourceforge.net/DTD/sodipodi-0.dtd"
   xmlns:inkscape="http://www.inkscape.org/namespaces/inkscape"
   width="744.09448819"
   height="1052.3622047"
   id="svg2"
   version="1.1"
   inkscape:version="0.48.2 r9819"
   sodipodi:docname="New document 1">
  <defs
     id="defs4" />
  <sodipodi:namedview
     id="base"
     pagecolor="#ffffff"
     bordercolor="#666666"
     borderopacity="1.0"
     inkscape:pageopacity="0.0"
     inkscape:pageshadow="2"
     inkscape:zoom="1.1588339"
     inkscape:cx="251.17243"
     inkscape:cy="678.57143"
     inkscape:document-units="px"
     inkscape:current-layer="layer1"
     showgrid="false"
     inkscape:window-width="1920"
     inkscape:window-height="1145"
     inkscape:window-x="-2"
     inkscape:window-y="-3"
     inkscape:window-maximized="1" />
  <metadata
     id="metadata7">
    <rdf:RDF>
      <cc:Work
         rdf:about="">
        <dc:format>image/svg+xml</dc:format>
        <dc:type
           rdf:resource="http://purl.org/dc/dcmitype/StillImage" />
        <dc:title></dc:title>
      </cc:Work>
    </rdf:RDF>
  </metadata>
  <g
     inkscape:label="Layer 1"
     inkscape:groupmode="layer"
     id="layer1">
    <g
       id="g3915">
      <path
         transform="matrix(0.8080808,0,0,0.8080808,110.69993,33.756912)"
         d="m 567.81216,382.72351 a 256.29211,256.29211 0 1 1 -512.584224,0 256.29211,256.29211 0 1 1 512.584224,0 z"
         sodipodi:ry="256.29211"
         sodipodi:rx="256.29211"
         sodipodi:cy="382.72351"
         sodipodi:cx="311.52005"
         id="path3913"
         style="fill:#b11017;fill-opacity:1;stroke:none"
         sodipodi:type="arc" />
      <path
         inkscape:connector-curvature="0"
         id="rect2985"
         d="m 266.23018,200.20031 c -16.73234,0 -30.21875,13.48641 -30.21875,30.21875 l 0,192.4375 c 0,16.73234 13.48641,30.1875 30.21875,30.1875 l 9.65625,0 0,17.28125 c 0,8.6052 6.92605,15.53125 15.53125,15.53125 8.6052,0 15.5625,-6.92605 15.5625,-15.53125 l 0,-17.28125 110.90625,0 0,17.28125 c 0,8.6052 6.92605,15.53125 15.53125,15.53125 8.6052,0 15.5625,-6.92605 15.5625,-15.53125 l 0,-17.28125 9.65625,0 c 16.73234,0 30.21875,-13.45516 30.21875,-30.1875 l 0,-192.4375 c 0,-16.73234 -13.48641,-30.21875 -30.21875,-30.21875 l -192.40625,0 z m 21.125,35.40625 150.15625,0 c 9.80037,0 17.6875,7.88713 17.6875,17.6875 l 0,94.90625 c 0,9.80037 -7.88713,17.6875 -17.6875,17.6875 l -150.15625,0 c -9.80037,0 -17.6875,-7.88713 -17.6875,-17.6875 l 0,-94.90625 c 0,-9.80037 7.88713,-17.6875 17.6875,-17.6875 z m 3.03125,153.59375 c 11.43808,0 20.6875,9.28067 20.6875,20.71875 0,11.43808 -9.24942,20.6875 -20.6875,20.6875 -11.43808,0 -20.71875,-9.24942 -20.71875,-20.6875 0,-11.43808 9.28067,-20.71875 20.71875,-20.71875 z m 144.09375,0 c 11.43808,0 20.71875,9.28067 20.71875,20.71875 0,11.43808 -9.28067,20.6875 -20.71875,20.6875 -11.43808,0 -20.6875,-9.24942 -20.6875,-20.6875 0,-11.43808 9.24942,-20.71875 20.6875,-20.71875 z"
         style="fill:#ffc20e;fill-opacity:1;stroke:none" />
    </g>
    <g
       id="g3813"
       transform="translate(-1.7254852,0)" />
    <g
       id="g3848"
       transform="translate(-1.5336113,0)" />
  </g>
</svg>
